<?xml version="1.0" encoding="iso-8859-1"?>
<!-- Generator: Adobe Illustrator 19.0.0, SVG Export Plug-In . SVG Version: 6.00 Build 0)  -->
<svg version="1.1" id="Layer_1" xmlns="http://www.w3.org/2000/svg" xmlns:xlink="http://www.w3.org/1999/xlink" x="0px" y="0px"
	 viewBox="0 0 466.008 466.008" style="enable-background:new 0 0 466.008 466.008;" xml:space="preserve">
<g>
	<g>
		<g>
			<path d="M233.004,0C104.224,0,0,104.212,0,233.004c0,128.781,104.212,233.004,233.004,233.004
				c128.782,0,233.004-104.212,233.004-233.004C466.008,104.222,361.796,0,233.004,0z M233.004,436.008
				C121.067,436.008,30,344.941,30,233.004S121.067,30,233.004,30s203.004,91.067,203.004,203.004S344.941,436.008,233.004,436.008z
				"/>
			<path d="M233.004,63.028c-8.284,0-15,6.716-15,15v149.507l-59.991,71.325c-5.333,6.34-4.516,15.802,1.824,21.135
				c6.34,5.333,15.804,4.514,21.135-1.824l63.512-75.511c2.273-2.703,3.521-6.123,3.521-9.655V78.028
				C248.004,69.743,241.289,63.028,233.004,63.028z"/>
		</g>
	</g>
</g>
<g>
</g>
<g>
</g>
<g>
</g>
<g>
</g>
<g>
</g>
<g>
</g>
<g>
</g>
<g>
</g>
<g>
</g>
<g>
</g>
<g>
</g>
<g>
</g>
<g>
</g>
<g>
</g>
<g>
</g>
</svg>
