<?xml version="1.0" encoding="utf-8"?>
<!-- Svg Vector Icons : http://www.onlinewebfonts.com/icon -->
<!DOCTYPE svg PUBLIC "-//W3C//DTD SVG 1.1//EN" "http://www.w3.org/Graphics/SVG/1.1/DTD/svg11.dtd">
<svg version="1.1" xmlns="http://www.w3.org/2000/svg" xmlns:xlink="http://www.w3.org/1999/xlink" x="0px" y="0px" viewBox="0 0 256 256" enable-background="new 0 0 256 256" xml:space="preserve">
<metadata> Svg Vector Icons : http://www.onlinewebfonts.com/icon </metadata>
<g><g><g><path fill="#000000" d="M73.7,19.1c-15.8,3-28.3,14.3-33.2,29.9c-1.9,6.2-2.1,17.5-0.3,23.4c4.1,13.7,14.6,24.7,28,29.3c4.4,1.5,15.3,2.4,19.4,1.6l2.2-0.4l0.4-5c1.4-18.2,13.5-37,28.2-44c4.4-2.1,4.4-2.1,4-4.3c-0.2-1.2-1.5-4.7-3-7.7c-3.5-7.3-11.4-15.3-18.5-18.7C92.2,18.9,82.4,17.4,73.7,19.1z"/><path fill="#000000" d="M144.3,51.8c-20.5,4.6-36.2,19.6-41.5,39.8c-1.9,7.3-1.9,19.1,0,26.3c5.2,19.6,20.1,34.5,39.5,39.5c10.3,2.6,24.8,1.5,34.5-2.8c14.8-6.5,26.2-19.7,30.7-35.2c1.9-6.7,2.4-17.9,1-25c-5.2-25.6-27.3-43.7-53.3-43.5C151.4,50.9,146.4,51.4,144.3,51.8z"/><path fill="#000000" d="M41.8,100.6c-8.6,5.6-16.1,13.5-21.5,22.5c-3.4,5.6-7.1,14.8-8.8,21.8c-2.4,9.6-3.1,8.7,7.8,8.7h9.5l13-13l13-13L65,137.8L75.2,148l5.4-5.4c4.6-4.6,13.4-11.4,15.9-12.3c0.6-0.2,0.3-2.6-1.3-9.1l-2.1-8.8l-4.2,0.5c-15.5,1.9-28.3-2.1-39.6-12.2l-3.3-3L41.8,100.6z"/><path fill="#000000" d="M33,163.4l-18.2,17.5l10.1,0.3l10.2,0.3l1.7,6.8c5.9,23.2,21.4,38.9,46.1,46.6c3.3,1,7.1,2.1,8.3,2.3l2.2,0.4l-1.9-1.4c-4.4-3.2-10.9-10.1-14.1-14.9C71.4,212,68,201,67.2,187.9l-0.4-6.7l10.7-0.1l10.7-0.2l-18.3-17.5c-10.1-9.6-18.4-17.5-18.5-17.5C51.3,145.9,43,153.7,33,163.4z"/><path fill="#000000" d="M104.5,155.3c-3.2,2.1-7.6,5.3-9.9,7.1l-4,3.5l11,11c6,6,11,11.2,11,11.5s-7.8,0.5-17.2,0.5H78.1l0.6,4c0.7,5.8,3.5,14.2,6.1,19.1c4.6,8.5,9.2,13.2,21.6,22.1l5.1,3.6h67.2H246v-5.3c-0.1-33.7-13.3-59.4-39.3-76.6l-6.2-4.1l-5.1,4.4c-8.2,7.1-16.7,11.5-26.8,14.1c-6.9,1.7-20.9,1.5-27.8-0.4c-10-2.7-20.5-8.6-26.9-15.1c-1.5-1.6-3-2.9-3.2-2.9S107.7,153.3,104.5,155.3z"/></g></g></g>
</svg>