<svg id="svg" version="1.1" xmlns="http://www.w3.org/2000/svg" xmlns:xlink="http://www.w3.org/1999/xlink" width="400" height="400" viewBox="0, 0, 400,400"><g id="svgg"><path id="path0" d="M183.500 60.488 C 182.101 60.920,180.698 62.119,179.976 63.500 L 179.583 64.250 179.500 81.167 L 179.417 98.083 153.833 98.167 L 128.250 98.250 127.333 98.624 C 124.691 99.701,122.894 102.070,122.477 105.028 C 122.116 107.580,122.382 135.979,122.776 137.015 C 123.743 139.557,125.360 141.178,127.748 141.999 C 128.710 142.330,129.122 142.333,171.609 142.333 C 195.909 142.333,214.500 142.396,214.500 142.479 C 214.500 142.559,213.474 143.927,212.219 145.520 C 210.965 147.113,208.327 150.479,206.358 153.000 C 204.388 155.521,202.241 158.258,201.585 159.083 C 200.929 159.908,198.338 163.208,195.826 166.417 C 188.474 175.809,182.040 184.022,177.417 189.917 C 172.031 196.784,166.805 203.452,151.423 223.083 C 144.743 231.608,137.803 240.458,136.001 242.750 C 132.208 247.572,127.330 253.796,122.646 259.791 C 117.716 266.101,118.167 263.949,118.167 281.167 C 118.167 297.398,118.157 297.316,120.419 299.578 C 122.957 302.116,121.243 301.989,152.872 301.995 L 179.494 302.000 179.539 318.792 L 179.583 335.583 179.966 336.417 C 180.448 337.465,181.504 338.564,182.583 339.139 L 183.417 339.583 201.583 339.583 L 219.750 339.583 220.583 339.171 C 221.646 338.644,222.644 337.646,223.171 336.583 L 223.583 335.750 223.627 318.875 C 223.652 309.594,223.689 301.987,223.711 301.971 C 223.732 301.955,235.529 301.899,249.926 301.846 L 276.101 301.750 277.394 301.111 C 279.628 300.007,281.232 297.960,281.668 295.659 C 281.891 294.483,281.891 265.017,281.668 263.841 C 281.225 261.507,279.585 259.422,277.352 258.356 L 276.083 257.750 230.458 257.707 C 205.365 257.684,184.833 257.628,184.833 257.583 C 184.833 257.501,188.202 253.161,195.249 244.167 C 199.254 239.055,205.360 231.238,213.476 220.833 C 216.086 217.487,219.284 213.400,220.582 211.750 C 222.947 208.744,227.654 202.719,238.223 189.167 C 241.333 185.179,244.268 181.429,244.746 180.833 C 245.224 180.237,248.042 176.637,251.010 172.833 C 258.596 163.108,266.614 152.847,273.510 144.038 C 280.402 135.234,280.865 134.604,281.370 133.357 L 281.750 132.417 281.797 118.860 C 281.827 110.230,281.783 104.971,281.676 104.392 C 281.241 102.037,279.665 100.011,277.395 98.889 L 276.101 98.250 249.925 98.167 L 223.750 98.083 223.667 81.167 L 223.583 64.250 223.191 63.500 C 222.656 62.479,221.587 61.396,220.583 60.861 L 219.750 60.417 201.833 60.388 C 191.979 60.372,183.729 60.417,183.500 60.488 " stroke="none" fill="#fbfbfb" fill-rule="evenodd"></path><path id="path1" d="M189.333 0.171 C 186.388 0.327,182.318 0.640,180.750 0.830 C 180.017 0.919,178.624 1.070,177.655 1.166 C 176.686 1.262,175.723 1.374,175.515 1.414 C 175.308 1.454,174.375 1.568,173.444 1.668 C 172.512 1.767,171.615 1.889,171.450 1.938 C 171.286 1.987,170.423 2.129,169.534 2.254 C 167.797 2.497,164.906 2.988,162.750 3.406 C 158.423 4.246,156.504 4.646,154.750 5.072 C 154.200 5.206,153.262 5.429,152.667 5.567 C 152.071 5.705,150.983 5.980,150.250 6.177 C 149.517 6.375,148.392 6.673,147.750 6.840 C 145.025 7.550,143.398 8.018,143.127 8.170 C 142.968 8.260,142.747 8.333,142.637 8.333 C 142.405 8.333,139.748 9.120,139.250 9.336 C 139.067 9.415,138.242 9.684,137.417 9.933 C 136.592 10.182,135.804 10.446,135.667 10.520 C 135.529 10.593,134.817 10.847,134.083 11.083 C 132.499 11.595,128.858 12.923,127.917 13.333 C 127.550 13.493,126.800 13.785,126.250 13.983 C 125.700 14.180,125.100 14.411,124.917 14.495 C 123.989 14.922,123.007 15.333,122.917 15.333 C 122.861 15.333,122.463 15.489,122.033 15.679 C 121.064 16.106,120.329 16.429,119.625 16.737 C 116.506 18.098,113.797 19.384,109.917 21.345 C 106.228 23.209,105.665 23.503,103.083 24.914 C 98.199 27.585,87.132 34.488,85.447 35.917 C 85.339 36.008,84.912 36.308,84.500 36.583 C 84.087 36.858,83.675 37.142,83.583 37.213 C 83.323 37.415,80.963 39.151,80.518 39.467 C 79.522 40.174,74.124 44.373,73.833 44.667 C 73.787 44.713,73.190 45.201,72.506 45.750 C 71.822 46.300,71.144 46.862,70.999 47.000 C 70.853 47.137,70.329 47.587,69.832 48.000 C 63.460 53.296,53.296 63.460,48.000 69.832 C 47.587 70.329,47.137 70.853,47.000 70.999 C 46.862 71.144,46.300 71.822,45.750 72.506 C 45.201 73.190,44.713 73.787,44.667 73.833 C 44.340 74.157,40.298 79.355,39.467 80.520 C 39.311 80.738,38.786 81.453,38.300 82.108 C 37.814 82.764,37.304 83.465,37.167 83.666 C 37.029 83.868,36.654 84.398,36.333 84.844 C 33.100 89.339,27.802 97.801,24.914 103.083 C 23.523 105.628,23.215 106.219,21.343 109.917 C 19.553 113.456,18.930 114.751,17.500 117.917 C 16.969 119.092,16.836 119.393,16.172 120.917 C 15.973 121.375,15.702 121.986,15.571 122.275 C 15.440 122.564,15.333 122.849,15.333 122.909 C 15.333 123.008,14.887 124.073,14.492 124.917 C 14.407 125.100,14.145 125.775,13.911 126.417 C 13.676 127.058,13.385 127.808,13.262 128.083 C 12.738 129.264,10.766 134.814,9.976 137.333 C 9.702 138.204,9.414 139.067,9.335 139.250 C 9.119 139.752,8.333 142.406,8.333 142.637 C 8.333 142.747,8.260 142.968,8.170 143.127 C 8.013 143.406,7.461 145.317,6.835 147.750 C 6.670 148.392,6.374 149.517,6.177 150.250 C 5.979 150.983,5.705 152.071,5.567 152.667 C 5.429 153.262,5.206 154.200,5.072 154.750 C 4.751 156.071,4.402 157.694,3.978 159.833 C 3.788 160.796,3.527 162.108,3.400 162.750 C 3.081 164.348,2.532 167.574,2.237 169.583 C 2.103 170.500,1.960 171.362,1.921 171.500 C 1.881 171.637,1.767 172.512,1.668 173.444 C 1.568 174.375,1.452 175.313,1.410 175.527 C 1.156 176.819,0.420 185.059,0.168 189.417 C -0.031 192.866,-0.031 207.134,0.168 210.583 C 0.420 214.942,1.095 222.504,1.411 224.500 C 1.461 224.821,1.613 225.946,1.748 227.000 C 2.142 230.076,2.868 234.584,3.400 237.250 C 3.527 237.892,3.788 239.204,3.978 240.167 C 4.402 242.306,4.751 243.929,5.072 245.250 C 5.206 245.800,5.429 246.737,5.567 247.333 C 5.705 247.929,5.979 249.017,6.177 249.750 C 6.374 250.483,6.670 251.608,6.835 252.250 C 7.461 254.683,8.013 256.594,8.170 256.873 C 8.260 257.032,8.333 257.266,8.333 257.393 C 8.333 257.520,8.587 258.403,8.896 259.354 C 9.205 260.305,9.687 261.796,9.966 262.667 C 10.830 265.368,12.766 270.798,13.262 271.917 C 13.385 272.192,13.676 272.942,13.911 273.583 C 14.145 274.225,14.407 274.900,14.492 275.083 C 14.876 275.904,15.333 276.991,15.333 277.083 C 15.333 277.139,15.489 277.537,15.679 277.967 C 16.106 278.936,16.429 279.671,16.737 280.375 C 17.061 281.119,17.892 282.955,18.715 284.750 C 19.415 286.275,22.875 293.163,23.780 294.833 C 25.147 297.356,25.688 298.317,27.302 301.083 C 29.727 305.243,34.960 313.424,35.917 314.553 C 36.008 314.661,36.308 315.087,36.583 315.500 C 36.858 315.912,37.142 316.325,37.213 316.417 C 37.404 316.662,39.138 319.018,39.467 319.480 C 40.298 320.645,44.340 325.843,44.667 326.167 C 44.713 326.212,45.201 326.810,45.750 327.494 C 46.300 328.178,46.862 328.857,47.000 329.004 C 47.137 329.150,47.625 329.715,48.083 330.258 C 53.825 337.069,63.474 346.715,69.832 352.000 C 70.329 352.412,70.853 352.863,70.999 353.000 C 71.144 353.137,71.822 353.700,72.506 354.250 C 73.190 354.799,73.787 355.287,73.833 355.333 C 74.014 355.516,76.353 357.358,78.250 358.812 C 80.748 360.727,80.831 360.789,82.250 361.811 C 82.892 362.272,83.492 362.710,83.583 362.783 C 83.675 362.857,84.087 363.142,84.500 363.417 C 84.912 363.692,85.325 363.974,85.417 364.044 C 86.200 364.643,87.196 365.336,87.750 365.667 C 88.117 365.886,88.454 366.111,88.500 366.167 C 88.546 366.222,89.858 367.081,91.417 368.075 C 92.975 369.069,94.625 370.122,95.083 370.415 C 96.365 371.235,100.555 373.687,102.503 374.757 C 105.649 376.486,106.044 376.694,109.750 378.581 C 113.078 380.276,114.230 380.828,117.917 382.498 C 119.088 383.029,119.378 383.157,120.917 383.828 C 121.375 384.027,121.986 384.298,122.275 384.429 C 122.564 384.560,122.849 384.667,122.909 384.667 C 123.008 384.667,124.073 385.113,124.917 385.508 C 125.100 385.593,125.775 385.855,126.417 386.089 C 127.058 386.324,127.808 386.615,128.083 386.738 C 128.820 387.065,132.547 388.420,134.083 388.920 C 134.817 389.158,135.567 389.416,135.750 389.492 C 136.295 389.720,137.438 390.093,140.083 390.908 C 141.458 391.332,142.921 391.786,143.333 391.917 C 144.249 392.209,146.181 392.753,147.750 393.160 C 148.392 393.327,149.517 393.625,150.250 393.822 C 150.983 394.020,152.108 394.301,152.750 394.446 C 153.392 394.591,154.367 394.819,154.917 394.952 C 156.948 395.443,158.547 395.778,162.750 396.594 C 168.917 397.790,177.064 398.898,182.917 399.336 C 184.200 399.432,185.887 399.590,186.667 399.688 C 188.800 399.954,205.931 400.072,210.000 399.849 C 219.540 399.324,229.605 398.124,237.250 396.600 C 237.892 396.473,239.204 396.212,240.167 396.021 C 241.864 395.685,242.908 395.459,245.167 394.939 C 247.646 394.368,248.483 394.164,249.750 393.823 C 250.483 393.626,251.608 393.330,252.250 393.165 C 254.683 392.539,256.594 391.987,256.873 391.830 C 257.032 391.740,257.266 391.667,257.393 391.667 C 257.520 391.667,258.403 391.413,259.354 391.104 C 260.305 390.795,261.796 390.313,262.667 390.034 C 265.368 389.170,270.798 387.234,271.917 386.738 C 272.192 386.615,272.942 386.324,273.583 386.089 C 274.225 385.855,274.900 385.593,275.083 385.508 C 275.904 385.124,276.991 384.667,277.083 384.667 C 277.139 384.667,277.537 384.511,277.967 384.321 C 278.936 383.894,279.671 383.571,280.375 383.263 C 281.002 382.990,282.553 382.288,284.917 381.209 C 286.509 380.482,292.903 377.264,294.833 376.217 C 295.337 375.944,296.350 375.395,297.083 374.996 C 300.427 373.181,310.527 367.000,311.583 366.123 C 311.675 366.047,312.125 365.741,312.583 365.443 C 313.425 364.895,314.951 363.839,315.606 363.349 C 315.801 363.203,316.126 362.971,316.327 362.833 C 316.763 362.535,318.745 361.100,319.333 360.657 C 321.121 359.310,324.511 356.696,324.925 356.346 C 325.204 356.110,325.763 355.654,326.166 355.333 C 328.234 353.686,333.395 349.254,335.078 347.680 C 339.821 343.244,343.381 339.683,347.678 335.078 C 348.691 333.992,350.816 331.578,352.000 330.168 C 353.914 327.889,354.889 326.723,355.142 326.413 C 356.210 325.101,357.496 323.467,358.812 321.750 C 360.727 319.252,360.789 319.169,361.811 317.750 C 362.272 317.108,362.710 316.508,362.783 316.417 C 362.857 316.325,363.142 315.912,363.417 315.500 C 363.692 315.087,363.974 314.675,364.044 314.583 C 364.643 313.800,365.336 312.804,365.667 312.250 C 365.886 311.883,366.111 311.546,366.167 311.500 C 366.222 311.454,367.081 310.142,368.075 308.583 C 369.069 307.025,370.123 305.375,370.417 304.917 C 371.095 303.859,374.250 298.456,375.088 296.917 C 376.475 294.369,376.781 293.786,378.581 290.250 C 380.276 286.922,380.828 285.770,382.498 282.083 C 383.029 280.912,383.157 280.622,383.828 279.083 C 384.027 278.625,384.298 278.014,384.429 277.725 C 384.560 277.436,384.667 277.151,384.667 277.091 C 384.667 276.992,385.113 275.927,385.508 275.083 C 385.593 274.900,385.855 274.225,386.089 273.583 C 386.324 272.942,386.615 272.192,386.738 271.917 C 387.065 271.180,388.420 267.453,388.920 265.917 C 389.158 265.183,389.416 264.433,389.492 264.250 C 389.713 263.721,390.079 262.600,390.905 259.917 C 391.329 258.542,391.783 257.079,391.916 256.667 C 392.236 255.667,392.796 253.686,393.165 252.250 C 393.330 251.608,393.626 250.483,393.823 249.750 C 394.020 249.017,394.301 247.892,394.446 247.250 C 394.591 246.608,394.819 245.633,394.952 245.083 C 395.322 243.555,395.640 242.090,396.021 240.167 C 396.212 239.204,396.472 237.892,396.600 237.250 C 401.157 214.351,401.157 185.649,396.600 162.750 C 396.472 162.108,396.212 160.796,396.021 159.833 C 395.668 158.051,395.342 156.542,394.923 154.750 C 394.794 154.200,394.575 153.262,394.436 152.667 C 394.296 152.071,394.021 150.983,393.823 150.250 C 393.626 149.517,393.330 148.392,393.165 147.750 C 392.539 145.317,391.987 143.406,391.830 143.127 C 391.740 142.968,391.667 142.734,391.667 142.607 C 391.667 142.480,391.413 141.597,391.104 140.646 C 390.795 139.695,390.313 138.204,390.034 137.333 C 389.170 134.632,387.234 129.202,386.738 128.083 C 386.615 127.808,386.324 127.058,386.089 126.417 C 385.855 125.775,385.593 125.100,385.508 124.917 C 385.124 124.096,384.667 123.009,384.667 122.917 C 384.667 122.861,384.511 122.463,384.321 122.033 C 383.894 121.064,383.571 120.329,383.263 119.625 C 382.990 118.998,382.288 117.447,381.209 115.083 C 380.482 113.491,377.264 107.097,376.217 105.167 C 375.944 104.662,375.395 103.650,374.996 102.917 C 373.142 99.502,366.645 88.893,366.167 88.500 C 366.111 88.454,365.886 88.117,365.667 87.750 C 365.336 87.196,364.643 86.200,364.044 85.417 C 363.974 85.325,363.692 84.912,363.417 84.500 C 363.142 84.087,362.857 83.675,362.783 83.583 C 362.710 83.492,362.272 82.892,361.811 82.250 C 360.843 80.906,360.842 80.904,358.816 78.250 C 357.427 76.430,355.543 74.041,355.333 73.833 C 355.287 73.787,354.799 73.190,354.250 72.506 C 353.700 71.822,353.137 71.144,353.000 70.999 C 352.863 70.853,352.412 70.331,352.000 69.837 C 346.454 63.197,336.634 53.374,330.168 48.000 C 329.671 47.587,329.147 47.137,329.001 47.000 C 328.856 46.862,328.178 46.300,327.494 45.750 C 326.810 45.201,326.212 44.713,326.167 44.667 C 325.843 44.340,320.645 40.298,319.480 39.467 C 319.262 39.311,318.547 38.786,317.892 38.300 C 317.236 37.814,316.534 37.304,316.331 37.167 C 316.128 37.029,315.801 36.797,315.606 36.651 C 314.951 36.161,313.425 35.105,312.583 34.557 C 312.125 34.259,311.675 33.953,311.583 33.877 C 311.009 33.400,304.261 29.169,301.448 27.521 C 296.609 24.687,295.277 23.962,290.083 21.340 C 286.543 19.552,285.238 18.925,282.083 17.500 C 280.908 16.969,280.607 16.836,279.083 16.172 C 278.625 15.973,278.014 15.702,277.725 15.571 C 277.436 15.440,277.151 15.333,277.091 15.333 C 276.992 15.333,275.927 14.887,275.083 14.492 C 274.900 14.407,274.225 14.145,273.583 13.911 C 272.942 13.676,272.192 13.385,271.917 13.262 C 270.798 12.766,265.368 10.830,262.667 9.966 C 261.796 9.687,260.305 9.205,259.354 8.896 C 258.403 8.587,257.520 8.333,257.393 8.333 C 257.266 8.333,257.032 8.260,256.873 8.170 C 256.594 8.013,254.683 7.461,252.250 6.835 C 251.608 6.670,250.483 6.374,249.750 6.177 C 249.017 5.979,247.929 5.705,247.333 5.567 C 246.737 5.429,245.800 5.206,245.250 5.072 C 243.929 4.751,242.306 4.402,240.167 3.978 C 239.204 3.788,237.892 3.527,237.250 3.400 C 234.654 2.882,230.282 2.176,227.000 1.744 C 225.946 1.606,224.821 1.453,224.500 1.405 C 222.213 1.064,214.717 0.402,210.500 0.168 C 207.423 -0.002,192.555 -0.001,189.333 0.171 M220.009 60.528 C 220.870 60.818,221.287 61.093,222.108 61.913 C 223.951 63.752,223.833 62.411,223.833 81.601 L 223.833 98.000 249.311 98.000 C 265.550 98.000,275.106 98.060,275.664 98.166 C 278.820 98.765,281.395 101.586,281.843 104.935 C 281.958 105.792,282.001 110.752,281.968 119.167 L 281.917 132.083 281.535 133.138 C 281.044 134.499,280.780 134.900,278.346 138.000 C 277.231 139.421,274.795 142.533,272.934 144.917 C 271.073 147.300,268.260 150.900,266.683 152.917 C 265.105 154.933,261.064 160.108,257.702 164.417 C 254.340 168.725,251.497 172.362,251.384 172.500 C 250.967 173.007,244.450 181.342,233.333 195.585 C 224.374 207.064,217.393 215.998,213.476 221.000 C 211.501 223.521,208.333 227.571,206.435 230.000 C 204.537 232.429,200.119 238.084,196.617 242.567 C 193.115 247.049,189.073 252.224,187.634 254.067 L 185.019 257.417 230.384 257.500 C 266.037 257.565,275.874 257.628,276.331 257.791 C 279.378 258.882,281.394 261.251,281.825 264.250 C 282.047 265.792,282.052 293.680,281.830 295.211 C 281.357 298.484,278.751 301.245,275.594 301.820 C 274.914 301.944,266.681 302.000,249.222 302.000 L 223.840 302.000 223.795 318.792 L 223.750 335.583 223.293 336.515 C 222.716 337.688,221.685 338.716,220.502 339.298 L 219.583 339.750 201.583 339.750 L 183.583 339.750 182.643 339.288 C 181.497 338.725,180.453 337.627,179.860 336.363 L 179.417 335.417 179.371 318.708 L 179.326 302.000 152.269 302.000 C 134.979 302.000,124.896 301.940,124.336 301.834 C 121.646 301.324,119.395 299.238,118.398 296.333 C 118.099 295.463,118.083 294.698,118.083 281.167 C 118.083 264.102,117.845 265.741,120.880 261.893 C 121.738 260.806,124.230 257.629,126.418 254.833 C 128.606 252.037,132.394 247.200,134.835 244.083 C 137.276 240.967,140.829 236.429,142.731 234.000 C 144.633 231.571,147.341 228.121,148.749 226.333 C 151.195 223.229,154.984 218.396,161.221 210.424 C 165.160 205.389,167.159 202.839,172.667 195.819 C 180.812 185.438,186.042 178.764,189.958 173.750 C 192.035 171.092,194.419 168.054,195.256 167.000 C 196.647 165.248,199.142 162.066,210.448 147.618 C 212.585 144.888,214.333 142.619,214.333 142.577 C 214.333 142.535,195.187 142.500,171.785 142.500 C 125.167 142.500,128.358 142.568,126.429 141.537 C 124.560 140.538,122.884 138.279,122.514 136.261 C 122.239 134.755,122.271 105.412,122.550 104.081 C 123.147 101.237,125.755 98.707,128.648 98.168 C 129.224 98.060,138.461 98.000,154.436 98.000 L 179.326 98.000 179.371 81.208 L 179.417 64.417 179.895 63.456 C 180.532 62.180,181.872 60.964,183.122 60.528 C 184.060 60.201,184.502 60.193,201.509 60.180 L 218.935 60.167 220.009 60.528 " stroke="none" fill="#6c1cd4" fill-rule="evenodd"></path><path id="path2" d="M281.913 118.167 C 281.913 125.179,281.933 128.048,281.958 124.542 C 281.983 121.035,281.983 115.298,281.958 111.792 C 281.933 108.285,281.913 111.154,281.913 118.167 M281.913 279.750 C 281.913 287.908,281.933 291.221,281.958 287.112 C 281.983 283.003,281.983 276.328,281.958 272.279 C 281.933 268.230,281.913 271.592,281.913 279.750 M118.079 281.250 C 118.079 288.583,118.100 291.559,118.125 287.863 C 118.150 284.166,118.150 278.166,118.125 274.529 C 118.100 270.892,118.079 273.917,118.079 281.250 " stroke="none" fill="#8a4ddc" fill-rule="evenodd"></path><path id="path3" d="M223.747 81.667 C 223.747 90.696,223.767 94.390,223.792 89.875 C 223.816 85.360,223.816 77.973,223.792 73.458 C 223.767 68.944,223.747 72.637,223.747 81.667 M179.413 318.167 C 179.413 327.104,179.434 330.760,179.458 326.292 C 179.483 321.823,179.483 314.510,179.458 310.042 C 179.434 305.573,179.413 309.229,179.413 318.167 " stroke="none" fill="#a06de3" fill-rule="evenodd"></path><path id="path4" d="M193.138 60.292 C 197.843 60.316,205.493 60.316,210.138 60.292 C 214.783 60.267,210.933 60.247,201.583 60.247 C 192.233 60.247,188.433 60.267,193.138 60.292 M179.374 81.708 L 179.333 97.999 154.375 98.042 L 129.417 98.084 154.380 98.126 C 174.228 98.158,179.360 98.124,179.423 97.958 C 179.467 97.844,179.483 90.475,179.459 81.583 L 179.415 65.417 179.374 81.708 M236.542 98.125 C 243.577 98.149,255.090 98.149,262.125 98.125 C 269.160 98.101,263.404 98.081,249.333 98.081 C 235.262 98.081,229.506 98.101,236.542 98.125 M150.708 142.458 C 162.419 142.482,181.581 142.482,193.292 142.458 C 205.002 142.435,195.421 142.415,172.000 142.415 C 148.579 142.415,138.998 142.435,150.708 142.458 M184.833 257.542 C 184.833 257.610,205.065 257.648,229.792 257.626 C 254.519 257.603,267.438 257.566,258.500 257.543 C 215.054 257.429,184.833 257.429,184.833 257.542 M239.195 301.958 C 245.674 301.982,256.324 301.982,262.862 301.958 C 269.400 301.934,264.100 301.914,251.083 301.914 C 238.067 301.914,232.717 301.934,239.195 301.958 M223.747 318.333 C 223.747 327.362,223.767 331.056,223.792 326.542 C 223.816 322.027,223.816 314.640,223.792 310.125 C 223.767 305.610,223.747 309.304,223.747 318.333 M193.054 339.792 C 197.805 339.816,205.530 339.816,210.221 339.792 C 214.912 339.767,211.025 339.747,201.583 339.747 C 192.142 339.747,188.304 339.767,193.054 339.792 " stroke="none" fill="#b489ec" fill-rule="evenodd"></path></g></svg>